<mxfile host="app.diagrams.net" modified="2025-03-21T04:24:22.536Z" agent="Mozilla/5.0 (Macintosh; Intel Mac OS X 10_15_7) AppleWebKit/537.36 (KHTML, like Gecko) Chrome/134.0.0.0 Safari/537.36" version="23.1.5" etag="ploMoy9tZsCwl58PprtF" type="github">
  <diagram name="第 1 页" id="blt7aV9eDnfSeZ9WCm5a">
    <mxGraphModel>
      <root>
        <mxCell id="0" />
        <mxCell id="1" parent="0" />
      </root>
    </mxGraphModel>
  </diagram>
</mxfile>
